<svg id="svg" version="1.1" xmlns="http://www.w3.org/2000/svg" xmlns:xlink="http://www.w3.org/1999/xlink" width="400" height="396.18138424821" viewBox="0, 0, 400,396.18138424821"><g id="svgg"><path id="path0" d="M215.820 107.423 C 206.830 111.057,194.978 151.584,189.883 196.109 C 185.571 233.796,191.383 288.547,202.838 318.137 C 206.150 326.691,209.529 328.739,215.535 325.831 C 220.452 323.451,220.354 321.026,214.783 307.235 C 212.448 301.457,210.078 294.945,209.516 292.765 C 196.348 241.730,204.955 116.737,221.267 122.120 C 222.466 122.516,223.020 122.522,223.838 122.149 L 224.882 121.674 224.691 117.824 C 224.391 111.762,222.553 108.460,218.917 107.451 C 217.203 106.974,216.935 106.972,215.820 107.423 M362.095 114.555 C 357.633 116.785,356.392 118.584,356.393 122.821 L 356.394 125.471 358.563 126.604 C 366.341 130.668,370.651 144.773,373.419 175.223 C 380.327 251.224,373.207 303.799,354.709 313.388 L 352.430 314.569 352.429 316.843 L 352.428 319.116 354.796 320.312 C 361.554 323.723,365.762 324.600,367.880 323.039 C 375.270 317.591,385.616 286.257,389.460 257.681 C 396.270 207.050,387.982 138.540,372.401 116.666 C 369.816 113.038,366.494 112.357,362.095 114.555 M257.284 195.087 C 253.172 196.335,251.456 199.455,250.933 206.632 C 249.277 229.338,248.459 272.268,249.542 279.553 C 252.608 300.156,264.528 313.184,281.751 314.753 C 291.005 315.597,296.858 313.438,305.836 305.872 C 310.265 302.139,310.010 302.062,310.011 307.136 C 310.011 309.480,310.277 313.895,310.601 316.947 C 312.103 331.087,310.449 348.190,306.881 355.401 C 302.587 364.082,293.031 368.545,280.473 367.736 C 269.224 367.011,262.650 363.617,253.752 353.942 C 247.720 347.384,244.960 346.233,240.868 348.569 C 233.953 352.518,238.050 363.331,249.288 370.790 C 281.286 392.028,317.621 381.916,323.279 350.198 C 323.919 346.612,324.149 339.257,325.663 273.935 C 326.363 243.746,326.408 243.289,331.060 219.822 C 334.700 201.456,334.669 201.326,326.268 199.803 C 315.454 197.842,314.961 199.322,314.388 235.481 C 313.942 263.652,312.471 272.437,305.875 286.337 C 299.138 300.535,288.073 306.303,277.375 301.195 C 267.338 296.403,263.800 286.364,263.856 262.834 C 263.923 234.840,266.325 209.175,269.800 199.325 C 270.544 197.218,269.948 196.194,267.565 195.480 C 265.303 194.802,259.014 194.562,257.284 195.087 " stroke="none" fill="#070707" fill-rule="evenodd"></path><path id="path1" d="M156.591 19.454 C 135.393 21.447,122.210 29.731,114.243 46.065 C 110.282 54.187,109.140 62.700,108.670 87.611 C 108.529 95.134,108.256 101.535,108.065 101.837 C 107.773 102.298,105.242 102.339,92.374 102.097 L 77.032 101.807 76.803 115.025 C 76.678 122.295,76.606 128.273,76.642 128.309 C 76.679 128.345,83.613 128.504,92.051 128.664 C 102.691 128.865,107.432 129.088,107.523 129.393 C 107.595 129.634,107.531 137.146,107.380 146.085 C 107.229 155.025,106.907 174.113,106.664 188.503 C 106.422 202.894,106.050 220.555,105.838 227.750 C 105.293 246.288,104.202 310.082,104.426 310.307 C 104.607 310.487,138.060 311.202,138.251 311.030 C 138.303 310.983,138.524 301.948,138.741 290.953 C 138.959 279.958,139.320 263.023,139.543 253.320 C 139.965 234.939,140.407 211.900,141.158 169.277 C 141.402 155.431,141.719 140.892,141.861 136.967 L 142.121 129.832 149.851 129.832 C 154.103 129.832,163.220 129.985,170.110 130.173 L 182.639 130.515 182.929 117.356 C 183.089 110.119,183.160 104.146,183.087 104.084 C 183.013 104.021,174.042 103.756,163.151 103.495 C 152.260 103.234,143.207 102.933,143.032 102.825 C 142.492 102.491,142.694 84.999,143.319 77.899 C 144.896 59.999,150.340 53.231,164.668 51.353 C 169.934 50.662,176.613 50.559,179.454 51.124 C 181.278 51.486,190.399 52.421,192.820 52.493 C 194.129 52.532,194.220 52.257,195.831 43.409 C 196.308 40.793,197.139 36.511,197.679 33.895 C 198.219 31.278,198.886 27.761,199.161 26.079 L 199.661 23.021 197.849 22.765 C 196.851 22.625,193.806 22.073,191.080 21.539 C 181.338 19.631,165.129 18.651,156.591 19.454 M12.522 21.841 C 12.250 23.078,11.502 60.395,11.745 60.638 C 11.949 60.842,45.694 61.475,45.890 61.278 C 45.958 61.211,46.184 53.327,46.392 43.759 C 46.601 34.191,46.827 25.361,46.896 24.137 L 47.020 21.911 42.241 21.662 C 39.613 21.526,31.898 21.295,25.097 21.151 L 12.732 20.888 12.522 21.841 M10.937 101.601 C 10.830 102.301,10.641 110.545,10.517 119.921 C 10.393 129.296,10.118 142.854,9.905 150.050 C 9.693 157.245,9.248 179.544,8.917 199.604 C 8.586 219.663,8.132 244.103,7.909 253.915 C 7.686 263.726,7.336 279.068,7.133 288.008 C 6.929 296.947,6.757 305.180,6.751 306.303 L 6.739 308.344 11.596 308.572 C 14.267 308.697,22.007 308.878,28.796 308.974 L 41.140 309.149 41.391 297.785 C 41.528 291.536,41.811 279.822,42.019 271.754 C 42.465 254.482,42.643 245.283,43.424 199.009 C 43.747 179.931,44.182 158.345,44.392 151.041 C 44.602 143.736,44.896 129.531,45.045 119.472 L 45.317 101.184 32.668 100.941 C 25.712 100.807,18.020 100.615,15.575 100.513 L 11.130 100.328 10.937 101.601 " stroke="none" fill="#fc7c1c" fill-rule="evenodd"></path><path id="path2" d="M0.000 198.216 L 0.000 396.432 200.000 396.432 L 400.000 396.432 400.000 198.216 L 400.000 0.000 200.000 0.000 L 0.000 0.000 0.000 198.216 M177.857 19.216 C 187.600 20.250,199.177 22.210,199.918 22.950 C 200.096 23.129,199.772 25.665,199.196 28.585 C 198.620 31.506,197.308 38.266,196.279 43.608 L 194.409 53.320 193.240 53.284 C 192.597 53.264,189.395 52.845,186.125 52.353 C 169.714 49.884,156.843 51.805,150.896 57.612 C 145.377 63.000,143.615 70.866,143.421 90.981 L 143.310 102.478 163.132 102.811 C 174.034 102.995,183.118 103.302,183.319 103.494 C 183.716 103.873,183.697 119.069,183.289 126.403 L 183.039 130.903 166.941 130.657 C 158.087 130.522,149.032 130.310,146.819 130.185 L 142.795 129.959 142.574 133.661 C 142.452 135.698,142.074 152.170,141.733 170.268 C 140.057 259.292,139.490 288.595,139.231 299.504 L 138.949 311.397 130.823 311.302 C 126.353 311.250,118.431 311.096,113.218 310.959 L 103.741 310.710 104.009 294.007 C 104.157 284.821,104.451 269.812,104.661 260.654 C 104.872 251.497,105.316 229.108,105.648 210.902 C 105.979 192.696,106.423 169.504,106.633 159.366 C 106.843 149.227,107.049 138.434,107.089 135.382 L 107.163 129.832 106.010 129.581 C 105.375 129.443,101.361 129.310,97.090 129.284 C 92.819 129.258,86.324 129.119,82.656 128.974 L 75.989 128.711 76.247 115.221 C 76.388 107.802,76.640 101.596,76.805 101.431 C 76.971 101.266,83.885 101.287,92.170 101.480 C 100.456 101.672,107.348 101.707,107.486 101.559 C 107.624 101.410,107.934 93.885,108.174 84.836 C 108.906 57.284,110.630 48.988,117.707 38.960 C 129.063 22.870,149.400 16.194,177.857 19.216 M35.863 20.878 L 47.275 21.141 46.990 41.195 C 46.832 52.224,46.558 61.403,46.379 61.591 C 46.196 61.784,38.446 61.784,28.676 61.591 L 11.298 61.249 11.397 48.563 C 11.452 41.586,11.605 32.443,11.738 28.246 L 11.980 20.614 18.215 20.614 C 21.644 20.614,29.586 20.733,35.863 20.878 M43.502 100.539 C 46.154 100.808,45.933 99.237,45.560 115.164 C 45.381 122.795,44.953 144.291,44.610 162.934 C 44.267 181.576,43.639 213.687,43.214 234.291 C 42.789 254.896,42.342 278.801,42.220 287.413 C 42.098 296.026,41.896 304.560,41.773 306.379 L 41.548 309.686 28.405 309.444 C 21.177 309.310,13.229 309.096,10.743 308.968 L 6.224 308.735 6.494 294.209 C 6.643 286.220,7.026 266.571,7.345 250.545 C 7.664 234.519,8.364 198.394,8.900 170.268 C 9.437 142.141,9.993 114.794,10.136 109.498 L 10.397 99.868 25.912 100.099 C 34.445 100.225,42.361 100.424,43.502 100.539 M220.987 107.948 C 226.789 111.148,226.994 124.894,221.205 122.496 C 216.074 120.370,211.079 133.690,207.750 158.376 C 207.309 161.646,206.768 165.570,206.548 167.096 C 203.952 185.120,202.710 217.622,203.761 240.040 C 205.421 275.449,207.590 288.035,215.416 307.692 C 221.039 321.813,220.973 324.072,214.866 326.518 C 207.089 329.634,203.743 325.338,198.183 305.099 C 188.467 269.727,185.459 225.404,190.299 188.944 C 191.530 179.669,194.250 163.882,195.643 157.922 C 195.992 156.427,196.549 153.786,196.881 152.054 C 200.689 132.140,209.586 110.457,215.293 107.181 C 216.525 106.474,218.893 106.793,220.987 107.948 M369.713 113.399 C 374.545 115.147,382.227 133.810,386.105 153.221 C 391.951 182.487,394.392 234.410,390.709 251.140 C 390.613 251.576,390.335 253.806,390.091 256.095 C 389.342 263.133,386.362 278.942,384.710 284.638 C 384.363 285.837,383.748 288.157,383.344 289.792 C 380.447 301.513,373.440 317.753,369.378 322.160 C 366.280 325.521,364.654 325.327,353.699 320.299 L 351.996 319.517 352.113 316.845 C 352.227 314.237,352.263 314.156,353.598 313.489 C 361.678 309.457,367.122 300.200,370.447 284.836 C 371.014 282.220,371.639 279.366,371.837 278.494 C 372.036 277.621,372.566 273.875,373.015 270.168 C 373.465 266.462,373.929 262.805,374.046 262.042 C 375.885 250.073,375.769 212.166,373.814 186.323 C 370.726 145.482,366.376 129.660,357.337 126.391 C 354.626 125.411,355.176 119.374,358.240 116.479 C 361.253 113.632,366.479 112.229,369.713 113.399 M268.469 195.344 C 270.795 196.380,271.089 197.312,270.006 200.220 C 268.476 204.327,266.623 215.787,265.811 226.165 C 261.593 280.107,265.033 297.844,280.496 301.872 C 290.172 304.392,298.405 299.605,304.571 287.874 C 307.414 282.465,310.553 273.508,311.748 267.393 C 313.565 258.096,313.652 256.819,314.013 234.291 C 314.508 203.345,314.711 201.904,318.856 199.974 C 324.554 197.321,334.182 200.497,334.195 205.035 C 334.196 205.536,333.658 208.712,333.000 212.091 C 328.332 236.038,327.206 242.605,326.880 247.770 C 326.600 252.192,326.125 270.974,325.280 311.001 C 324.469 349.433,324.293 351.479,321.132 359.374 C 313.763 377.777,290.322 387.189,268.979 380.316 C 249.545 374.057,237.277 364.333,237.297 355.203 C 237.309 349.892,239.854 347.285,245.035 347.277 C 247.665 347.273,248.693 348.009,254.413 353.992 C 264.256 364.287,270.568 367.234,282.656 367.180 C 297.406 367.113,305.409 361.734,308.434 349.851 C 310.494 341.762,311.319 326.669,310.212 317.344 C 309.823 314.073,309.485 309.659,309.460 307.534 C 309.436 305.409,309.348 303.670,309.265 303.669 C 309.183 303.668,307.667 304.885,305.896 306.375 C 295.877 314.799,289.435 316.708,278.005 314.639 C 261.731 311.693,250.572 296.912,248.622 275.719 C 247.873 267.583,249.763 208.233,250.969 201.977 C 252.267 195.248,260.905 191.973,268.469 195.344 " stroke="none" fill="#fbfbfb" fill-rule="evenodd"></path><path id="path3" d="M154.609 19.083 C 135.547 21.035,120.861 30.505,113.996 45.273 C 111.675 50.267,112.017 50.359,114.543 45.420 C 126.330 22.375,152.947 14.070,191.080 21.539 C 193.806 22.073,196.857 22.626,197.862 22.767 L 199.688 23.025 199.325 25.021 C 198.781 28.016,199.162 28.734,199.749 25.818 C 200.360 22.784,200.363 22.788,196.625 21.997 C 183.251 19.169,165.675 17.950,154.609 19.083 M11.740 28.187 C 11.606 32.416,11.452 41.586,11.397 48.563 L 11.298 61.249 28.676 61.591 C 38.446 61.784,46.195 61.784,46.376 61.591 C 46.553 61.403,46.784 52.507,46.888 41.824 C 46.992 31.140,47.014 23.290,46.936 24.381 C 46.858 25.471,46.619 34.191,46.404 43.759 C 46.189 53.327,45.958 61.211,45.890 61.278 C 45.694 61.475,11.949 60.842,11.745 60.638 C 11.511 60.404,12.244 23.105,12.507 21.903 C 12.742 20.824,15.644 20.762,35.041 21.422 C 45.801 21.788,47.660 21.760,47.139 21.239 C 47.047 21.147,39.099 20.942,29.478 20.784 L 11.984 20.496 11.740 28.187 M197.915 32.608 C 197.456 34.842,196.620 39.167,196.056 42.220 C 193.904 53.863,194.386 52.925,190.825 52.394 C 189.330 52.170,186.680 51.893,184.936 51.777 C 182.028 51.584,182.177 51.633,186.720 52.371 C 189.445 52.814,192.293 53.209,193.048 53.248 L 194.422 53.320 195.694 46.779 C 197.989 34.983,199.076 28.875,198.911 28.709 C 198.821 28.620,198.373 30.374,197.915 32.608 M111.438 51.793 C 110.483 55.365,109.842 58.640,109.627 61.051 C 109.468 62.825,109.830 61.601,110.790 57.116 C 112.058 51.190,112.441 48.041,111.438 51.793 M164.180 51.382 C 157.660 52.268,151.924 54.976,149.377 58.373 C 146.213 62.592,144.021 68.843,143.711 74.529 L 143.527 77.899 144.088 74.285 C 146.795 56.836,153.640 51.429,173.043 51.416 C 176.967 51.413,179.732 51.279,179.187 51.117 C 177.544 50.629,168.559 50.788,164.180 51.382 M108.897 65.907 C 108.788 67.052,108.482 75.481,108.217 84.638 C 107.953 93.796,107.624 101.410,107.486 101.559 C 107.348 101.707,100.456 101.672,92.170 101.480 C 83.885 101.287,76.971 101.266,76.805 101.431 C 76.640 101.596,76.388 107.831,76.245 115.286 L 75.987 128.840 78.727 128.879 C 98.280 129.156,106.569 129.477,107.174 129.979 C 107.843 130.535,108.051 130.186,107.526 129.390 C 107.326 129.086,102.455 128.858,91.972 128.660 C 83.578 128.502,76.679 128.343,76.642 128.308 C 76.606 128.272,76.678 122.295,76.803 115.025 L 77.032 101.807 92.374 102.097 C 105.242 102.339,107.773 102.298,108.065 101.837 C 108.256 101.535,108.530 95.134,108.673 87.611 C 108.816 80.089,109.066 71.660,109.228 68.880 C 109.518 63.911,109.286 61.829,108.897 65.907 M142.973 81.726 C 142.609 86.863,142.653 102.590,143.032 102.825 C 143.207 102.933,152.260 103.234,163.151 103.495 C 174.042 103.756,183.013 104.021,183.087 104.084 C 183.160 104.146,183.089 110.119,182.929 117.356 L 182.639 130.515 170.110 130.173 C 163.220 129.985,154.103 129.832,149.851 129.832 L 142.121 129.832 141.861 136.967 C 141.718 140.892,141.397 155.610,141.148 169.673 C 140.362 214.135,138.868 289.235,138.510 302.317 L 138.271 311.077 125.528 310.975 L 112.785 310.874 125.471 311.221 C 132.448 311.412,138.352 311.501,138.590 311.420 C 138.884 311.319,139.110 306.978,139.295 297.856 C 139.583 283.688,140.679 226.337,141.726 170.664 C 142.070 152.349,142.452 135.698,142.574 133.661 L 142.795 129.959 146.819 130.185 C 149.032 130.310,158.087 130.522,166.941 130.657 L 183.039 130.903 183.289 126.403 C 183.697 119.069,183.716 103.873,183.319 103.494 C 183.118 103.302,174.034 102.995,163.132 102.811 L 143.310 102.478 143.457 90.287 C 143.605 77.958,143.443 75.100,142.973 81.726 M10.136 109.504 C 9.993 114.797,9.437 142.141,8.900 170.268 C 8.364 198.394,7.664 234.519,7.345 250.545 C 7.026 266.571,6.643 286.220,6.494 294.209 L 6.224 308.735 10.743 308.968 C 13.229 309.096,21.174 309.310,28.400 309.443 L 41.536 309.686 41.772 306.577 C 42.081 302.495,42.570 264.560,42.309 264.817 C 42.199 264.926,41.898 274.913,41.642 287.011 C 41.385 299.108,41.143 309.039,41.103 309.079 C 40.927 309.255,7.088 308.508,6.904 308.325 C 6.715 308.135,6.899 298.174,7.919 253.518 C 8.133 244.143,8.581 219.970,8.914 199.802 C 9.247 179.633,9.693 157.245,9.905 150.050 C 10.118 142.854,10.393 129.296,10.517 119.921 C 10.641 110.545,10.830 102.301,10.937 101.601 L 11.130 100.328 15.575 100.513 C 18.020 100.615,25.684 100.807,32.607 100.940 L 45.193 101.182 45.193 111.906 C 45.193 117.804,45.264 122.555,45.351 122.464 C 45.438 122.374,45.571 117.491,45.648 111.613 L 45.788 100.928 44.400 100.659 C 43.637 100.511,35.674 100.276,26.705 100.135 L 10.397 99.880 10.136 109.504 M44.967 132.805 C 44.967 137.929,45.024 140.025,45.093 137.463 C 45.162 134.901,45.162 130.709,45.093 128.147 C 45.024 125.585,44.967 127.681,44.967 132.805 M106.925 145.689 C 106.023 189.493,105.464 220.386,105.304 235.282 C 105.154 249.236,105.176 250.264,105.443 241.625 C 106.229 216.193,107.595 139.786,107.367 133.994 C 107.294 132.141,107.095 137.403,106.925 145.689 M44.288 155.203 C 43.726 177.426,42.826 229.989,42.886 237.066 C 42.933 242.620,43.002 241.593,43.236 231.913 C 43.849 206.454,44.850 148.726,44.727 145.887 C 44.656 144.252,44.459 148.444,44.288 155.203 M42.588 254.311 C 42.588 259.326,42.645 261.323,42.714 258.749 C 42.784 256.174,42.783 252.071,42.714 249.631 C 42.645 247.190,42.588 249.296,42.588 254.311 M104.528 265.709 C 104.385 273.176,104.149 286.378,104.003 295.045 L 103.736 310.803 106.873 310.724 L 110.010 310.645 107.076 310.507 L 104.141 310.369 104.396 300.972 C 104.789 286.440,105.201 252.131,104.982 252.131 C 104.875 252.131,104.670 258.241,104.528 265.709 " stroke="none" fill="#fc9440" fill-rule="evenodd"></path><path id="path4" d="M215.293 107.181 C 212.243 108.932,203.095 125.045,203.856 127.326 C 203.931 127.553,204.590 126.158,205.320 124.226 C 208.563 115.641,213.531 107.954,216.283 107.263 C 220.774 106.136,224.334 110.607,224.691 117.824 L 224.882 121.674 223.838 122.149 C 223.020 122.522,222.467 122.516,221.272 122.122 C 219.860 121.656,216.683 122.465,217.342 123.123 C 217.436 123.217,218.086 123.008,218.787 122.658 C 219.828 122.139,220.269 122.108,221.192 122.491 C 225.560 124.300,227.026 117.545,223.685 111.002 C 222.016 107.733,217.731 105.782,215.293 107.181 M361.744 114.215 C 357.542 116.335,356.262 118.008,355.808 121.974 C 355.451 125.100,355.692 125.796,357.337 126.391 C 363.582 128.649,367.857 138.049,370.530 155.401 C 370.916 157.909,371.294 159.567,371.370 159.086 C 371.538 158.019,370.122 149.630,369.041 145.292 C 366.270 134.174,363.461 129.163,358.563 126.604 L 356.394 125.471 356.393 122.821 C 356.390 114.247,367.606 109.935,372.401 116.666 C 379.605 126.780,385.818 148.295,388.968 174.034 C 389.462 178.067,389.930 181.054,390.007 180.671 C 390.202 179.712,389.060 170.320,387.876 163.132 C 384.034 139.812,379.398 125.857,372.043 115.480 C 369.991 112.586,365.955 112.090,361.744 114.215 M215.638 125.372 C 214.280 127.646,212.803 131.176,212.984 131.716 C 213.064 131.958,213.542 131.054,214.045 129.708 C 214.549 128.363,215.470 126.457,216.094 125.474 C 216.717 124.491,217.096 123.687,216.936 123.687 C 216.776 123.687,216.192 124.445,215.638 125.372 M202.045 132.274 C 200.411 137.332,197.224 149.675,196.892 152.230 C 196.557 154.798,197.060 153.092,199.051 144.896 C 199.951 141.189,201.378 135.939,202.222 133.229 C 203.065 130.519,203.683 128.229,203.594 128.140 C 203.505 128.051,202.808 129.911,202.045 132.274 M211.316 136.792 C 210.121 141.220,208.462 149.840,208.615 150.826 C 208.684 151.271,208.973 150.208,209.256 148.464 C 209.540 146.720,210.385 142.722,211.134 139.581 C 212.609 133.394,212.729 131.555,211.316 136.792 M207.588 155.934 C 206.738 161.388,206.018 168.092,206.256 168.330 C 206.360 168.435,206.566 167.486,206.713 166.222 C 206.860 164.959,207.341 161.277,207.782 158.041 C 208.699 151.308,208.554 149.730,207.588 155.934 M195.329 159.268 C 194.339 163.993,193.788 167.359,193.973 167.545 C 194.066 167.637,194.637 165.205,195.243 162.141 C 195.849 159.076,196.260 156.485,196.158 156.383 C 196.056 156.280,195.683 157.579,195.329 159.268 M371.549 161.348 C 371.549 162.111,371.630 162.423,371.730 162.042 C 371.830 161.660,371.830 161.036,371.730 160.654 C 371.630 160.273,371.549 160.585,371.549 161.348 M371.945 164.519 C 371.945 165.282,372.027 165.595,372.127 165.213 C 372.226 164.832,372.226 164.207,372.127 163.826 C 372.027 163.444,371.945 163.756,371.945 164.519 M372.400 168.825 C 375.303 201.391,375.979 224.426,374.858 252.527 C 374.712 256.165,374.735 256.365,375.039 254.113 C 375.678 249.362,375.966 215.352,375.454 204.931 C 374.703 189.635,372.860 166.584,372.351 166.105 C 372.235 165.996,372.257 167.220,372.400 168.825 M193.490 168.422 C 193.473 168.715,192.934 172.016,192.291 175.756 C 190.842 184.200,189.081 197.750,189.148 199.944 C 189.201 201.678,189.181 201.813,190.493 190.882 C 190.833 188.048,191.742 181.931,192.512 177.290 C 193.282 172.649,193.824 168.635,193.717 168.370 C 193.577 168.026,193.513 168.041,193.490 168.422 M205.780 169.465 C 205.762 169.678,205.403 173.425,204.982 177.791 C 203.838 189.632,203.363 196.482,203.427 200.219 C 203.480 203.317,203.509 203.181,203.821 198.414 C 204.290 191.249,205.296 178.570,205.770 173.867 C 205.988 171.704,206.086 169.742,205.988 169.506 C 205.891 169.271,205.797 169.253,205.780 169.465 M390.197 183.152 C 390.197 184.133,390.274 184.534,390.369 184.044 C 390.463 183.553,390.463 182.750,390.369 182.260 C 390.274 181.769,390.197 182.170,390.197 183.152 M390.599 187.711 C 390.602 188.801,390.679 189.200,390.770 188.597 C 390.861 187.995,390.859 187.103,390.765 186.615 C 390.671 186.127,390.596 186.620,390.599 187.711 M391.085 193.657 C 391.171 195.837,391.459 202.171,391.725 207.731 C 392.252 218.730,391.809 235.250,390.684 246.581 C 390.063 252.827,389.986 255.478,390.516 252.329 C 392.498 240.558,392.931 206.088,391.268 192.468 C 390.951 189.874,390.939 189.952,391.085 193.657 M257.222 194.614 C 252.757 196.065,250.495 200.074,250.605 206.343 L 250.660 209.514 250.952 205.690 C 251.593 197.271,254.984 194.170,262.886 194.779 C 269.296 195.273,270.823 196.340,269.727 199.555 C 269.376 200.587,269.179 201.522,269.291 201.633 C 269.678 202.020,270.820 197.830,270.555 196.995 C 269.927 195.017,260.926 193.410,257.222 194.614 M318.856 199.974 C 316.911 200.880,315.560 202.463,315.560 203.839 C 315.560 204.119,315.890 203.727,316.294 202.967 C 317.845 200.048,321.400 198.920,326.268 199.803 C 333.336 201.084,334.351 202.577,332.989 209.696 C 332.522 212.137,332.219 214.214,332.316 214.311 C 332.531 214.526,334.193 206.310,334.193 205.035 C 334.191 200.501,324.555 197.321,318.856 199.974 M188.571 205.047 C 187.213 222.970,189.288 268.623,191.694 273.736 C 191.910 274.196,191.806 273.103,190.712 263.425 C 188.824 246.728,188.099 228.511,188.705 213.006 C 189.124 202.280,189.062 198.577,188.571 205.047 M267.660 208.207 C 267.211 210.670,266.753 213.667,266.644 214.866 C 266.456 216.927,266.475 216.894,266.992 214.272 C 268.223 208.035,268.862 204.111,268.675 203.925 C 268.567 203.816,268.110 205.743,267.660 208.207 M315.132 204.988 C 315.115 205.297,314.936 207.066,314.735 208.920 C 314.535 210.773,314.205 222.279,314.004 234.490 C 313.618 257.797,313.632 257.617,311.428 269.409 C 311.309 270.045,311.482 269.762,311.812 268.781 C 313.538 263.654,314.014 257.502,314.372 235.679 C 314.562 224.123,314.910 212.456,315.146 209.753 C 315.381 207.049,315.482 204.745,315.369 204.632 C 315.256 204.519,315.149 204.680,315.132 204.988 M249.986 216.142 C 249.838 219.256,249.546 225.461,249.337 229.931 C 249.129 234.400,248.893 244.301,248.813 251.933 C 248.658 266.791,248.706 266.171,249.347 244.995 C 249.575 237.473,249.956 226.713,250.193 221.084 C 250.430 215.455,250.542 210.766,250.440 210.665 C 250.339 210.564,250.135 213.029,249.986 216.142 M203.143 220.020 C 203.143 224.926,203.200 226.933,203.269 224.480 C 203.339 222.027,203.339 218.013,203.269 215.560 C 203.200 213.107,203.143 215.114,203.143 220.020 M330.836 220.817 C 330.249 223.872,329.839 226.584,329.926 226.845 C 330.070 227.278,331.398 221.006,332.021 216.947 C 332.612 213.099,331.826 215.665,330.836 220.817 M266.005 218.864 C 266.005 219.172,265.748 222.012,265.436 225.173 C 265.123 228.335,264.779 233.865,264.671 237.463 C 264.477 243.932,264.478 243.950,264.828 239.049 C 265.022 236.323,265.471 230.644,265.825 226.429 C 266.179 222.213,266.364 218.660,266.237 218.533 C 266.110 218.406,266.006 218.555,266.005 218.864 M328.540 232.904 C 327.496 238.537,326.980 242.189,327.154 242.712 C 327.243 242.977,327.536 241.770,327.807 240.031 C 328.077 238.291,328.569 235.493,328.899 233.813 C 329.230 232.133,329.433 230.438,329.350 230.047 C 329.268 229.656,328.903 230.942,328.540 232.904 M203.434 238.850 C 203.348 245.253,204.772 267.114,205.245 266.641 C 205.341 266.546,205.128 262.394,204.773 257.416 C 204.417 252.438,203.983 245.332,203.807 241.625 C 203.545 236.087,203.478 235.592,203.434 238.850 M326.534 246.269 C 326.206 249.252,325.395 283.297,325.545 287.810 C 325.613 289.881,325.814 285.064,325.990 277.106 C 326.167 269.148,326.477 258.546,326.679 253.546 C 327.039 244.618,326.989 242.121,326.534 246.269 M264.179 249.752 C 264.179 252.696,264.241 253.900,264.318 252.428 C 264.394 250.956,264.394 248.548,264.318 247.076 C 264.241 245.605,264.179 246.809,264.179 249.752 M389.528 256.987 C 389.381 258.350,388.903 261.670,388.467 264.364 C 388.030 267.059,387.735 269.449,387.810 269.674 C 387.989 270.211,389.636 260.626,389.955 257.185 C 390.092 255.714,390.112 254.509,390.000 254.509 C 389.887 254.509,389.675 255.624,389.528 256.987 M263.845 266.006 C 264.081 285.345,267.923 296.606,275.530 300.250 C 276.869 300.891,276.880 300.890,275.917 300.207 C 267.644 294.341,264.632 285.530,264.024 265.411 L 263.713 255.104 263.845 266.006 M374.061 261.348 C 373.910 262.929,373.441 266.949,373.018 270.283 C 372.205 276.695,372.148 277.340,372.421 277.067 C 372.905 276.583,374.962 258.474,374.533 258.474 C 374.424 258.474,374.211 259.767,374.061 261.348 M248.195 268.583 C 248.142 273.139,249.478 284.252,250.014 283.715 C 250.088 283.641,249.882 281.812,249.557 279.650 C 249.231 277.488,248.950 273.935,248.934 271.754 C 248.900 267.345,248.242 264.519,248.195 268.583 M205.452 268.583 C 205.456 269.455,205.537 269.765,205.632 269.272 C 205.727 268.779,205.723 268.065,205.624 267.686 C 205.525 267.307,205.447 267.711,205.452 268.583 M386.766 273.751 C 386.387 275.705,385.546 279.424,384.897 282.015 C 384.249 284.605,383.802 286.809,383.905 286.911 C 384.007 287.013,384.291 286.321,384.535 285.372 C 384.780 284.423,385.137 283.112,385.328 282.458 C 386.061 279.947,387.773 271.149,387.619 270.685 C 387.529 270.417,387.146 271.797,386.766 273.751 M205.840 271.952 C 205.840 272.716,205.922 273.028,206.022 272.646 C 206.121 272.265,206.121 271.640,206.022 271.259 C 205.922 270.877,205.840 271.189,205.840 271.952 M310.384 272.844 C 304.135 296.288,293.291 305.667,277.701 301.113 C 277.265 300.986,277.711 301.281,278.692 301.769 C 281.755 303.291,289.103 303.096,292.691 301.397 C 300.030 297.920,308.503 284.522,310.996 272.448 C 311.385 270.565,310.910 270.873,310.384 272.844 M206.145 274.630 C 206.145 280.918,209.914 295.205,214.746 307.233 C 220.121 320.614,220.324 322.699,216.501 325.297 C 215.719 325.829,215.285 326.264,215.537 326.264 C 216.254 326.264,218.402 324.304,219.043 323.065 C 220.288 320.657,219.863 318.860,215.410 307.692 C 210.803 296.140,208.851 289.371,207.332 279.683 C 206.497 274.357,206.145 272.856,206.145 274.630 M192.511 278.692 C 193.506 289.062,200.430 315.089,204.017 321.940 C 206.585 326.847,210.893 328.845,214.279 326.701 C 215.016 326.234,215.018 326.219,214.304 326.445 C 212.524 327.010,209.089 327.081,208.127 326.572 C 204.274 324.537,198.389 307.616,194.507 287.413 C 192.702 278.018,192.262 276.096,192.511 278.692 M371.673 279.088 C 371.509 280.069,371.038 282.299,370.626 284.044 C 369.841 287.365,369.669 289.029,370.262 287.560 C 370.828 286.160,372.336 278.355,372.147 277.811 C 372.050 277.532,371.837 278.107,371.673 279.088 M250.379 285.629 C 252.195 298.087,263.996 311.431,275.622 314.172 C 279.626 315.116,280.010 314.813,276.094 313.800 C 264.466 310.794,255.978 302.080,251.741 288.801 C 250.155 283.830,250.097 283.696,250.379 285.629 M381.390 294.649 C 380.421 297.756,378.970 301.992,378.167 304.063 C 376.370 308.695,375.889 310.519,377.195 307.744 C 378.580 304.802,383.437 290.326,383.282 289.604 C 383.210 289.272,382.359 291.542,381.390 294.649 M367.994 293.644 C 367.339 295.559,366.426 298.062,365.965 299.207 C 365.503 300.352,365.214 301.288,365.323 301.288 C 365.866 301.288,369.766 290.744,369.370 290.348 C 369.267 290.245,368.648 291.728,367.994 293.644 M325.138 296.135 C 324.624 324.235,323.840 347.059,323.280 350.198 C 320.089 368.075,307.466 379.652,288.900 381.729 C 285.241 382.138,284.282 382.596,287.669 382.317 C 308.770 380.577,322.640 366.624,324.275 345.491 C 324.704 339.941,325.626 296.968,325.385 293.756 C 325.289 292.478,325.187 293.462,325.138 296.135 M363.721 303.550 C 361.025 308.239,358.200 311.060,354.001 313.255 L 352.230 314.181 352.113 316.836 L 351.996 319.490 353.501 320.249 C 356.054 321.537,357.126 321.602,354.708 320.322 L 352.428 319.115 352.431 316.842 L 352.435 314.569 355.058 313.181 C 358.692 311.260,366.053 302.888,365.019 301.854 C 364.906 301.741,364.322 302.504,363.721 303.550 M305.836 305.872 C 297.418 312.966,293.083 314.806,284.638 314.867 C 280.616 314.896,280.336 314.939,282.260 315.237 C 290.048 316.443,297.040 313.821,305.896 306.375 C 307.667 304.885,309.183 303.668,309.265 303.670 C 309.348 303.671,309.458 305.678,309.511 308.129 C 309.563 310.581,309.867 314.460,310.187 316.749 C 310.560 319.423,310.705 319.990,310.591 318.335 C 310.494 316.918,310.298 312.859,310.157 309.316 C 310.015 305.773,309.785 302.874,309.646 302.874 C 309.506 302.874,307.792 304.223,305.836 305.872 M374.209 313.665 C 369.412 323.565,367.078 325.197,361.000 322.901 C 357.563 321.603,357.077 321.856,360.439 323.194 C 367.085 325.838,370.212 323.661,375.030 313.036 C 376.861 308.997,376.241 309.473,374.209 313.665 M310.724 328.840 C 309.685 358.576,303.455 367.086,282.656 367.180 C 270.558 367.234,264.245 364.284,254.413 353.980 C 248.395 347.672,247.466 347.060,244.400 347.375 C 242.896 347.529,242.916 347.541,244.797 347.606 C 247.537 347.701,248.899 348.665,253.752 353.942 C 264.151 365.249,274.424 369.320,288.008 367.518 C 305.104 365.249,311.672 353.580,311.115 326.462 L 311.001 320.912 310.724 328.840 M241.031 347.951 C 237.231 349.340,236.007 355.786,238.620 360.651 C 243.603 369.931,263.959 381.152,277.304 381.977 L 280.079 382.148 276.908 381.617 C 260.461 378.863,243.242 369.171,238.851 360.195 C 236.661 355.718,237.575 350.450,240.868 348.569 C 242.317 347.742,242.393 347.453,241.031 347.951 " stroke="none" fill="#9c9c9c" fill-rule="evenodd"></path></g></svg>